<?xml version="1.0" encoding="iso-8859-1"?>
<!-- Generator: Adobe Illustrator 19.0.0, SVG Export Plug-In . SVG Version: 6.00 Build 0)  -->
<svg version="1.1" id="Capa_1" xmlns="http://www.w3.org/2000/svg" xmlns:xlink="http://www.w3.org/1999/xlink" x="0px" y="0px"
	 viewBox="0 0 429.453 429.453" style="enable-background:new 0 0 429.453 429.453;" xml:space="preserve">
<g>
	<path style="fill:#4DCFE0;" d="M214.727,15.673c48.588,0,88.294,37.094,88.294,90.384c0,53.812-39.706,97.176-88.294,97.176
		s-88.294-43.363-88.294-97.176S166.139,15.673,214.727,15.673z"/>
	<path style="fill:#4DCFE0;" d="M399.151,413.78H30.302c0-128,99.265-156.212,184.424-156.212S399.151,285.78,399.151,413.78z"/>
</g>
<g>
	<path style="fill:#3A2C51;" d="M399.151,429.453H30.302c-8.882,0-15.673-6.792-15.673-15.673
		c0-110.759,71.053-171.886,200.098-171.886S414.824,303.02,414.824,413.78C414.824,422.661,408.033,429.453,399.151,429.453z
		 M46.498,398.106h336.457c-6.269-83.069-62.694-124.865-168.229-124.865S52.767,315.037,46.498,398.106z"/>
	<path style="fill:#3A2C51;" d="M214.727,218.906c-57.469,0-103.967-50.678-103.967-112.849C110.759,45.453,155.69,0,214.727,0
		s103.967,45.453,103.967,106.057C318.694,168.229,272.196,218.906,214.727,218.906z M214.727,31.347
		c-42.318,0-72.62,31.347-72.62,74.71c0,44.931,32.392,81.502,72.62,81.502s72.62-36.571,72.62-81.502
		C287.347,63.216,256,31.347,214.727,31.347z"/>
</g>
<g>
</g>
<g>
</g>
<g>
</g>
<g>
</g>
<g>
</g>
<g>
</g>
<g>
</g>
<g>
</g>
<g>
</g>
<g>
</g>
<g>
</g>
<g>
</g>
<g>
</g>
<g>
</g>
<g>
</g>
</svg>
